<?xml version="1.0" encoding="UTF-8" standalone="no"?> <!-- Created with Vectornator Pro for iOS (http://vectornator.io/) --><!DOCTYPE svg PUBLIC "-//W3C//DTD SVG 1.1//EN" "http://www.w3.org/Graphics/SVG/1.1/DTD/svg11.dtd">
<svg height="100%" style="fill-rule:evenodd;clip-rule:evenodd;stroke-linecap:round;stroke-linejoin:round;" xmlns:xlink="http://www.w3.org/1999/xlink" xmlns="http://www.w3.org/2000/svg" xml:space="preserve" width="100%" xmlns:vectornator="http://vectornator.io" version="1.1" viewBox="0 0 500 500">
<metadata>
<vectornator:setting key="RulersVisible" value="1"/>
<vectornator:setting key="OutlineMode" value="0"/>
<vectornator:setting key="GridSpacing" value="10"/>
<vectornator:setting key="Units" value="Pixels"/>
<vectornator:setting key="DynamicGuides" value="1"/>
<vectornator:setting key="SnapToPoints" value="1"/>
<vectornator:setting key="CMYKEnabledKey" value="0"/>
<vectornator:setting key="SnapToGrid" value="1"/>
<vectornator:setting key="IsolateActiveLayer" value="0"/>
<vectornator:setting key="ShowGrid" value="1"/>
<vectornator:setting key="SnapToEdges" value="0"/>
</metadata>
<defs/>
<g id="レイヤー 1" vectornator:layerName="レイヤー 1">
<path stroke="#29b9f2" stroke-width="2.95" d="M1.13243e-05+250.098C1.13243e-05+112.081+111.885+0.196054+249.902+0.196054C387.919+0.196054+499.804+112.081+499.804+250.098C499.804+388.115+387.919+500+249.902+500C111.885+500+1.13243e-05+388.115+1.13243e-05+250.098Z" fill="#ffffff" stroke-linecap="round" opacity="1" stroke-linejoin="round"/>
</g>
<g id="レイヤー 2" vectornator:layerName="レイヤー 2">
<path stroke="#29b9f2" stroke-width="2.48" d="M65.7112+220L264.289+220C267.443+220+270+222.387+270+225.33L270+354.67C270+357.613+267.443+360+264.289+360L65.7112+360C62.557+360+60+357.613+60+354.67L60+225.33C60+222.387+62.557+220+65.7112+220Z" fill="#ffffff" stroke-linecap="round" opacity="1" stroke-linejoin="round"/>
<path stroke="#f21e56" stroke-width="2.48" d="M250+230L260+240" fill="none" stroke-linecap="round" opacity="1" stroke-linejoin="round"/>
<path stroke="#f21e56" stroke-width="2.48" d="M260+230L250+240" fill="none" stroke-linecap="round" opacity="1" stroke-linejoin="round"/>
<path stroke="#25d03e" stroke-width="2.48" d="M210+235C210+232.239+212.239+230+215+230C217.761+230+220+232.239+220+235C220+237.761+217.761+240+215+240C212.239+240+210+237.761+210+235Z" fill="none" stroke-linecap="round" opacity="1" stroke-linejoin="round"/>
<path stroke="#29b9f2" stroke-width="2.48" d="M270+250L60+250" fill="none" stroke-linecap="round" opacity="1" stroke-linejoin="round"/>
<path stroke="#96c0d0" stroke-width="2.48" d="M85.7112+260L104.289+260C107.443+260+110+262.301+110+265.14L110+344.86C110+347.699+107.443+350+104.289+350L85.7112+350C82.557+350+80+347.699+80+344.86L80+265.14C80+262.301+82.557+260+85.7112+260Z" fill="none" stroke-linecap="round" opacity="1" stroke-linejoin="round"/>
<path stroke="#f2bd1e" stroke-width="2.48" d="M230+240L240+240" fill="none" stroke-linecap="round" opacity="1" stroke-linejoin="round"/>
<path stroke="#f22996" stroke-width="2.48" d="M125+270L245+270C247.761+270+250+272.239+250+275L250+275C250+277.761+247.761+280+245+280L125+280C122.239+280+120+277.761+120+275L120+275C120+272.239+122.239+270+125+270Z" fill="none" stroke-linecap="round" opacity="1" stroke-linejoin="round"/>
<path stroke="#76e416" stroke-width="2.48" d="M125+290L215+290C217.761+290+220+292.239+220+295L220+295C220+297.761+217.761+300+215+300L125+300C122.239+300+120+297.761+120+295L120+295C120+292.239+122.239+290+125+290Z" fill="none" stroke-linecap="round" opacity="1" stroke-linejoin="round"/>
<path stroke="#29b9f2" stroke-width="2.48" d="M125+310L185+310C187.761+310+190+312.239+190+315L190+315C190+317.761+187.761+320+185+320L125+320C122.239+320+120+317.761+120+315L120+315C120+312.239+122.239+310+125+310Z" fill="none" stroke-linecap="round" opacity="1" stroke-linejoin="round"/>
<path stroke="#ff9d09" stroke-width="2.48" d="M125+330L205+330C207.761+330+210+332.239+210+335L210+335C210+337.761+207.761+340+205+340L125+340C122.239+340+120+337.761+120+335L120+335C120+332.239+122.239+330+125+330Z" fill="none" stroke-linecap="round" opacity="1" stroke-linejoin="round"/>
<path stroke="#f2bd1e" stroke-width="2.48" d="M260+195C260+192.239+262.239+190+265+190C267.761+190+270+192.239+270+195C270+197.761+267.761+200+265+200C262.239+200+260+197.761+260+195Z" fill="#f2bd1e" stroke-linecap="round" opacity="1" stroke-linejoin="round"/>
<path stroke="#f2bd1e" stroke-width="2.48" d="M280+170C280+164.477+284.477+160+290+160C295.523+160+300+164.477+300+170C300+175.523+295.523+180+290+180C284.477+180+280+175.523+280+170Z" fill="#f2bd1e" stroke-linecap="round" opacity="1" stroke-linejoin="round"/>
<path stroke="#f2bd1e" stroke-width="2.48" d="M320+165C320+156.716+326.716+150+335+150C343.284+150+350+156.716+350+165C350+173.284+343.284+180+335+180C326.716+180+320+173.284+320+165Z" fill="#f2bd1e" stroke-linecap="round" opacity="1" stroke-linejoin="round"/>
<path stroke="#f2bd1e" stroke-width="2.48" d="M372.447+160L357.753+130.225L324.894+125.451L348.671+102.275L343.058+69.5491L372.447+85L401.836+69.5492L396.224+102.275L420+125.451L387.142+130.225L372.447+160Z" fill="#f2bd1e" stroke-linecap="round" opacity="1" stroke-linejoin="round"/>
<path stroke="#f22996" stroke-width="2.48" d="M305.711+270L354.289+270C357.443+270+360+272.557+360+275.711L360+354.289C360+357.443+357.443+360+354.289+360L305.711+360C302.557+360+300+357.443+300+354.289L300+275.711C300+272.557+302.557+270+305.711+270Z" fill="#ffffff" stroke-linecap="round" opacity="1" stroke-linejoin="round"/>
<path stroke="#76e416" stroke-width="2.48" d="M395.711+280L424.289+280C427.443+280+430+282.557+430+285.711L430+354.289C430+357.443+427.443+360+424.289+360L395.711+360C392.557+360+390+357.443+390+354.289L390+285.711C390+282.557+392.557+280+395.711+280Z" fill="#ffffff" stroke-linecap="round" opacity="1" stroke-linejoin="round"/>
<path stroke="#f2bd1e" stroke-width="2.48" d="M330+300L336.18+313.167L350+315.279L340+325.528L342.361+340L330+333.167L317.639+340L320+325.528L310+315.279L323.82+313.167L330+300Z" fill="#f2bd1e" stroke-linecap="round" opacity="1" stroke-linejoin="round"/>
<path stroke="#f2bd1e" stroke-width="2.48" d="M410+240L414.635+249.875L425+251.459L417.5+259.146L419.271+270L410+264.875L400.729+270L402.5+259.146L395+251.459L405.365+249.875L410+240Z" fill="#f2bd1e" stroke-linecap="round" opacity="1" stroke-linejoin="round"/>
<path stroke="#f22996" stroke-width="2.48" d="M300+280L360+280" fill="none" stroke-linecap="round" opacity="1" stroke-linejoin="round"/>
<path stroke="#76e416" stroke-width="2.48" d="M390+290L430+290" fill="none" stroke-linecap="round" opacity="1" stroke-linejoin="round"/>
<g opacity="1">
<path stroke="#ff9d09" stroke-width="1" d="M125.04+407.64C125.04+413.4+125.44+419.2+125.68+421.68C124.64+419.44+122.4+415.16+120.56+412.16L110.48+395.8C109.72+394.6+109.04+393.88+107.24+393.88C105.68+393.88+104.72+394.8+104.72+396.28L104.72+423.88C104.72+424.96+105.52+425.52+106.64+425.52C107.72+425.52+108.52+424.96+108.52+423.88L108.52+411.6C108.52+405.72+108.2+400.16+107.96+397.6C108.88+399.6+110.88+403.52+112.48+406.08L123.08+423.24C124.08+424.84+124.72+425.52+126.44+425.52C128.04+425.52+128.84+424.56+128.84+423L128.84+395.52C128.84+394.4+128.08+393.88+126.96+393.88C125.84+393.88+125.04+394.4+125.04+395.52L125.04+407.64Z" fill="#ffbf00" stroke-linecap="round" opacity="1" stroke-linejoin="round"/>
<path stroke="#ff9d09" stroke-width="1" d="M144.56+402.56C138.08+402.56+134.2+407.24+134.2+414.16C134.2+421.28+138.04+425.92+144.64+425.92C150.88+425.92+154.72+421.12+154.72+414.16C154.72+407.2+150.96+402.56+144.56+402.56ZM144.68+405.64C148.76+405.64+151.04+409.08+151.04+414.12C151.04+419.44+148.76+422.84+144.4+422.84C140.28+422.84+137.88+419.36+137.88+414.28C137.88+408.96+140.36+405.64+144.68+405.64Z" fill="#ffbf00" stroke-linecap="round" opacity="1" stroke-linejoin="round"/>
<path stroke="#ff9d09" stroke-width="1" d="M187.2+425.28C193.36+425.28+196.92+422.08+196.92+416.64C196.92+412.32+194.84+409.68+190.76+408.84C194.2+407.72+195.84+405.48+195.84+401.68C195.84+396.88+192.52+394.12+186.76+394.12L177.32+394.12C174.48+394.12+173.28+395.36+173.28+398.44L173.28+421C173.28+424.04+174.48+425.28+177.32+425.28L187.2+425.28ZM177+407.28L177+398.72C177+397.92+177.4+397.44+178.16+397.44L186.48+397.44C190.12+397.44+192+399.04+192+402.16C192+405.36+190+407.28+186.56+407.28L177+407.28ZM177+410.56L186.68+410.56C190.76+410.56+192.96+412.52+192.96+416.28C192.96+419.96+190.8+421.96+186.76+421.96L178.28+421.96C177.4+421.96+177+421.52+177+420.64L177+410.56Z" fill="#ffbf00" stroke-linecap="round" opacity="1" stroke-linejoin="round"/>
<path stroke="#ff9d09" stroke-width="1" d="M211.04+402.56C204.56+402.56+200.68+407.24+200.68+414.16C200.68+421.28+204.52+425.92+211.12+425.92C217.36+425.92+221.2+421.12+221.2+414.16C221.2+407.2+217.44+402.56+211.04+402.56ZM211.16+405.64C215.24+405.64+217.52+409.08+217.52+414.12C217.52+419.44+215.24+422.84+210.88+422.84C206.76+422.84+204.36+419.36+204.36+414.28C204.36+408.96+206.84+405.64+211.16+405.64Z" fill="#ffbf00" stroke-linecap="round" opacity="1" stroke-linejoin="round"/>
<path stroke="#ff9d09" stroke-width="1" d="M235.16+402.56C228.68+402.56+224.8+407.24+224.8+414.16C224.8+421.28+228.64+425.92+235.24+425.92C241.48+425.92+245.32+421.12+245.32+414.16C245.32+407.2+241.56+402.56+235.16+402.56ZM235.28+405.64C239.36+405.64+241.64+409.08+241.64+414.12C241.64+419.44+239.36+422.84+235+422.84C230.88+422.84+228.48+419.36+228.48+414.28C228.48+408.96+230.96+405.64+235.28+405.64Z" fill="#ffbf00" stroke-linecap="round" opacity="1" stroke-linejoin="round"/>
<path stroke="#ff9d09" stroke-width="1" d="M253.6+417.4L256.64+414.48L264.08+424.88C264.4+425.32+264.92+425.52+265.44+425.52C265.84+425.52+266.2+425.44+266.52+425.24C267.04+424.92+267.44+424.32+267.44+423.72C267.44+423.4+267.36+423.12+267.16+422.84L259.2+412.24L265.96+405.92C266.32+405.56+266.48+405.2+266.48+404.8C266.48+404.36+266.24+403.88+265.88+403.48C265.56+403.08+265.08+402.88+264.56+402.88C264.16+402.88+263.72+403.04+263.36+403.4L253.6+413.12L253.6+395.36C253.6+394.32+252.88+393.88+251.84+393.88C250.72+393.88+250+394.4+250+395.44L250+423.92C250+425+250.68+425.52+251.8+425.52C252.88+425.52+253.6+425+253.6+423.92L253.6+417.4Z" fill="#ffbf00" stroke-linecap="round" opacity="1" stroke-linejoin="round"/>
<path stroke="#ff9d09" stroke-width="1" d="M300.92+410.32C300.92+405.44+299.04+402.6+294.32+402.6C289.88+402.6+288.44+404.88+287.28+406.96C286.76+404.2+284.84+402.6+281.32+402.6C277.4+402.6+275.72+404.84+274.72+407.2C274.84+406.6+275+405.8+275+405.28L275+404.44C275+403.4+274.28+402.88+273.28+402.88C272.16+402.88+271.4+403.4+271.4+404.44L271.4+423.92C271.4+425+272.12+425.52+273.24+425.52C274.28+425.52+275+425+275+423.92L275+412.32C275+411+275.36+409.56+276.08+408.48C277.04+407.04+278.32+405.8+280.44+405.8C283.28+405.8+284.28+407.72+284.28+411.12L284.28+423.92C284.28+425+284.96+425.52+286.08+425.52C287.12+425.52+287.88+425+287.88+423.92L287.88+412.12C287.88+410.92+288.36+409.36+288.96+408.52C289.92+407.08+291.32+405.8+293.44+405.8C296.32+405.8+297.28+407.72+297.28+411.12L297.28+423.92C297.28+425+297.96+425.52+299.08+425.52C300.12+425.52+300.92+425+300.92+423.92L300.92+410.32Z" fill="#ffbf00" stroke-linecap="round" opacity="1" stroke-linejoin="round"/>
<path stroke="#ff9d09" stroke-width="1" d="M320+411.12C315.72+411.2+313.64+411.44+311.44+412.04C307.64+413.08+305.4+415.48+305.4+419.24C305.4+423.36+308.08+425.84+312.48+425.84C316.44+425.84+318.56+424.28+320.08+422.56C320.12+423.36+320.2+424.08+320.32+424.56C320.48+425.28+321.2+425.52+322+425.52C322.12+425.52+322.24+425.52+322.36+425.52C323.36+425.44+323.96+424.88+323.96+424.24C323.96+424.12+323.92+423.96+323.88+423.84C323.64+423.08+323.44+421.72+323.44+420.32L323.44+409.4C323.44+404.68+320.8+402.56+315.44+402.56C312.2+402.56+310.4+403.24+309+404.32C308.08+405.04+307.04+406.2+306.64+407.44C306.6+407.6+306.56+407.76+306.56+407.92C306.56+408.64+307.12+409.2+307.88+409.44C308.16+409.56+308.48+409.6+308.8+409.6C309.48+409.6+310.08+409.32+310.36+408.56C311.04+406.72+312.48+405.6+315.4+405.6C318.56+405.6+320+406.76+320+409.4L320+411.12ZM320+416.68C320+418.2+319.72+418.96+318.96+419.92C317.68+421.52+315.6+422.76+313.08+422.76C310.68+422.76+309.08+421.36+309.08+419.28C309.08+417.36+309.92+416.12+311.52+415.32C313.12+414.52+315.32+414.12+320+414L320+416.68Z" fill="#ffbf00" stroke-linecap="round" opacity="1" stroke-linejoin="round"/>
<path stroke="#ff9d09" stroke-width="1" d="M329.96+423.92C329.96+425+330.72+425.52+331.84+425.52C332.84+425.52+333.64+425+333.64+423.92L333.64+412.88C333.68+411.2+334.28+409.72+335.32+408.44C336.32+407.16+337.64+406.28+339.36+406.24C340.2+406.24+340.72+406.36+341.28+406.48C341.4+406.52+341.52+406.52+341.64+406.52C342.48+406.52+343.04+405.8+343.2+404.96C343.24+404.72+343.28+404.48+343.28+404.28C343.28+403.52+342.92+402.96+342+402.84C341.44+402.72+341+402.64+340.4+402.64C340.12+402.64+339.84+402.64+339.52+402.68C336.08+402.8+334.04+405.28+333.4+407.2C333.48+406.56+333.64+405.88+333.64+405.32L333.64+404.44C333.64+403.4+332.84+402.88+331.84+402.88C330.72+402.88+329.96+403.4+329.96+404.44L329.96+423.92Z" fill="#ffbf00" stroke-linecap="round" opacity="1" stroke-linejoin="round"/>
<path stroke="#ff9d09" stroke-width="1" d="M350.32+417.4L353.36+414.48L360.8+424.88C361.12+425.32+361.64+425.52+362.16+425.52C362.56+425.52+362.92+425.44+363.24+425.24C363.76+424.92+364.16+424.32+364.16+423.72C364.16+423.4+364.08+423.12+363.88+422.84L355.92+412.24L362.68+405.92C363.04+405.56+363.2+405.2+363.2+404.8C363.2+404.36+362.96+403.88+362.6+403.48C362.28+403.08+361.8+402.88+361.28+402.88C360.88+402.88+360.44+403.04+360.08+403.4L350.32+413.12L350.32+395.36C350.32+394.32+349.6+393.88+348.56+393.88C347.44+393.88+346.72+394.4+346.72+395.44L346.72+423.92C346.72+425+347.4+425.52+348.52+425.52C349.6+425.52+350.32+425+350.32+423.92L350.32+417.4Z" fill="#ffbf00" stroke-linecap="round" opacity="1" stroke-linejoin="round"/>
<path stroke="#ff9d09" stroke-width="1" d="M376.72+415.56C380.36+416.28+381.4+417.36+381.4+419.32C381.4+421.36+379.32+422.76+376.12+422.76C372.96+422.76+371.32+421.6+370.6+419.28C370.36+418.52+369.64+418.2+368.88+418.2C368.72+418.2+368.52+418.24+368.32+418.28C367.56+418.44+366.88+419+366.88+419.8C366.88+419.96+366.92+420.12+366.96+420.32C368+423.88+371+425.92+376.12+425.92C381.72+425.92+385+423.08+385+419.24C385+415.04+382.92+413.52+377.72+412.44L375.24+411.92C371.88+411.2+371.12+410.4+371.12+408.56C371.12+406.88+372.64+405.56+375.88+405.56C378.16+405.56+379.92+406.48+380.44+408.28C380.64+409.04+381.36+409.36+382.08+409.36C382.28+409.36+382.52+409.32+382.72+409.28C383.44+409.08+384.12+408.56+384.12+407.8C384.12+407.64+384.08+407.48+384.04+407.32C383.04+404.4+380.2+402.52+375.76+402.52C370.6+402.52+367.48+405+367.48+408.64C367.48+412.44+369.52+414.16+374.44+415.12L376.72+415.56Z" fill="#ffbf00" stroke-linecap="round" opacity="1" stroke-linejoin="round"/>
<path stroke="#ff9d09" stroke-width="1" d="M391.04+416.2C391.04+417.12+391.8+417.56+392.64+417.56C393.44+417.56+394.2+417.12+394.24+416.2L394.8+395.72C394.84+394.6+393.96+393.88+392.68+393.88C391.36+393.88+390.48+394.6+390.48+395.72L391.04+416.2ZM392.64+420C391.08+420+389.88+421.08+389.88+422.76C389.88+424.44+391.08+425.52+392.64+425.52C394.12+425.52+395.4+424.44+395.4+422.76C395.4+421.08+394.12+420+392.64+420Z" fill="#ffbf00" stroke-linecap="round" opacity="1" stroke-linejoin="round"/>
</g>
</g>
</svg>
